<svg height="256px" width="256px" version="1.1" id="_x32_" xmlns="http://www.w3.org/2000/svg" xmlns:xlink="http://www.w3.org/1999/xlink" viewBox="-143.36 -143.36 798.72 798.72" xml:space="preserve" fill="#ffffff" stroke="#ffffff"><g id="SVGRepo_bgCarrier" stroke-width="0"><rect x="-143.36" y="-143.36" width="798.72" height="798.72" rx="399.36" fill="#c2f0ff" strokewidth="0"></rect></g><g id="SVGRepo_tracerCarrier" stroke-linecap="round" stroke-linejoin="round"></g><g id="SVGRepo_iconCarrier"> <style type="text/css"> .st0{fill:#000000;} </style> <g> <path class="st0" d="M511.98,444.96c-0.199-7.957-3.446-15.516-9.06-21.122c-0.352-0.36-0.72-0.704-1.088-1.042l-0.13-0.115 l-0.13-0.122c0,0-0.834-0.712-2.358-2.03c-5.338-4.641-19.054-16.587-33.995-29.935c-7.46-6.67-15.225-13.686-22.393-20.302 c-7.153-6.602-13.716-12.82-18.686-17.798c-0.398-0.398-0.789-0.789-1.164-1.164c-2.106-2.136-3.516-4.135-4.511-5.981 c-1.478-2.795-2.082-5.322-2.251-7.88c-0.161-2.527,0.176-5.069,0.804-7.359c3.01-11.151,7.949-25.824,12.184-43.001 c6.349-25.793,11.089-57.567,5.086-93.223c-2.995-17.813-8.685-36.553-18.028-55.844c-9.35-19.299-22.339-39.134-39.861-59.275 c-3.714-4.273-7.558-8.401-11.533-12.368C325.334,26.876,273.771,2.683,219.926,0.21c-26.903-1.241-54.35,3.002-80.863,13.432 c-26.513,10.407-52.045,27.003-75.227,50.192c-23.189,23.181-39.777,48.714-50.2,75.227C-2.008,178.837-3.685,220.674,6.04,259.724 c9.718,39.088,30.71,75.487,60.362,105.139c3.974,3.974,8.094,7.819,12.368,11.533c26.842,23.365,53.179,38.674,78.359,48.024 c18.893,7.016,37.097,10.676,54.251,12.009c25.747,2.022,49.074-1.165,69.153-5.682c10.04-2.252,19.284-4.84,27.601-7.283 c8.308-2.451,15.722-4.756,21.979-6.456c3.063-0.828,6.524-1.149,9.917-0.46c1.724,0.337,3.462,0.927,5.315,1.922 c1.861,0.988,3.852,2.397,5.981,4.504c0.383,0.375,0.773,0.766,1.172,1.164c5.682,5.682,12.988,13.432,20.654,21.787 c11.51,12.544,23.886,26.482,33.366,37.258c4.74,5.391,8.761,9.994,11.588,13.248c1.417,1.632,2.534,2.91,3.3,3.791 c0.758,0.881,1.156,1.348,1.156,1.348l0.115,0.122l0.108,0.13c0.344,0.376,0.696,0.743,1.056,1.096 c5.606,5.605,13.164,8.86,21.122,9.06l0.834,0.023l-0.827-0.023c8.462,0.206,16.649-3.064,22.638-9.052l35.32-35.32 c5.989-5.989,9.251-14.176,9.052-22.638l0.015,0.529L511.98,444.96z M482.856,447.533l-35.312,35.32 c-0.498,0.49-1.172,0.773-1.877,0.75c-0.674-0.015-1.302-0.291-1.768-0.75l-0.008-0.008c-1.402-1.631-12.621-14.582-26.459-30.166 c-7.398-8.324-15.547-17.415-23.373-25.938c-7.827-8.531-15.302-16.48-21.49-22.676c-0.436-0.429-0.865-0.857-1.294-1.279 c-3.952-3.913-8.202-7.03-12.552-9.358c-6.548-3.5-13.295-5.169-19.467-5.545c-6.188-0.383-11.802,0.444-16.58,1.746 c-12.436,3.378-26.497,8.125-42.349,12.015c-18.931,4.649-40.206,8.08-63.479,6.701l191.47-191.47 c1.226,20.807-1.355,40.06-5.254,57.436c-2.06,9.137-4.456,17.76-6.831,25.808c-2.366,8.065-4.694,15.547-6.608,22.562 c-1.724,6.349-2.635,14.252-0.912,22.906c0.866,4.312,2.39,8.776,4.718,13.126c2.321,4.366,5.445,8.608,9.351,12.56 c0.429,0.429,0.858,0.858,1.294,1.286c6.188,6.196,14.145,13.67,22.669,21.504c24.514,22.492,53.715,47.772,56.104,49.832 l0.008,0.008c0.46,0.468,0.736,1.103,0.75,1.761C483.622,446.37,483.354,447.043,482.856,447.533z"></path> </g> </g></svg>